<svg width="120" height="120" viewBox="0 0 120 120" fill="none" xmlns="http://www.w3.org/2000/svg">
  <rect width="120" height="120" rx="28" fill="url(#paint0_linear_original_reference_mark)"/>
  <path d="M24 89V31H52.2397C59.1669 31 64.7844 32.1308 69.0922 34.3925C73.4655 36.5888 76.7161 39.6626 78.8441 43.6138C80.972 47.4993 82.036 52.0171 82.036 57.1672C82.036 62.3829 80.9382 66.9336 78.742 70.8191C76.6111 74.6391 73.3264 77.6123 68.8877 79.7388C64.449 81.8654 58.7981 82.9287 51.9348 82.9287H37.7113V69.5263H49.7063C53.4955 69.5263 56.5447 69.0413 58.8541 68.0714C61.1635 67.0358 62.8424 65.5177 63.8907 63.5171C65.0046 61.4519 65.5616 58.9418 65.5616 55.9868C65.5616 52.9664 64.9725 50.4563 63.7942 48.4563C62.6803 46.4563 60.9999 44.9707 58.7536 44C56.5073 43.0293 53.4249 42.5439 49.5063 42.5439H40.4272V89H24Z" fill="white"/>
  <path d="M54.5 89L74.3112 31H92.9365L112.643 89H96.1091L83.9012 48.8258H83.3901L71.1822 89H54.5Z" fill="white"/>
  <defs>
    <linearGradient id="paint0_linear_original_reference_mark" x1="8" y1="10" x2="112" y2="110" gradientUnits="userSpaceOnUse">
      <stop stop-color="#6B3CF8"/>
      <stop offset="1" stop-color="#4C2BD0"/>
    </linearGradient>
  </defs>
</svg>
